<?xml version="1.0"?>
<svg width="1879.57" height="1879.57" xmlns="http://www.w3.org/2000/svg" xmlns:svg="http://www.w3.org/2000/svg">
 <defs>
  <style>.cls-1,.cls-4{fill:none;}.cls-1,.cls-2,.cls-4,.cls-5{stroke:#131f20;stroke-linecap:round;stroke-linejoin:round;}.cls-1,.cls-2{stroke-width:16.51px;}.cls-2,.cls-3,.cls-5{fill:#131f20;}.cls-4{stroke-width:8.25px;}.cls-5{stroke-width:1.65px;}</style>
 </defs>
 <g class="layer" display="inline">
  <title>Layer 1</title>
  <g data-name="Layer 2" id="Layer_2">
   <g data-name="Layer 1" id="Layer_1-2">
    <path class="cls-1" d="m408.7,1346.37l0,-519a44.76,44.76 0 0 1 44.77,-44.77l0,0a44.77,44.77 0 0 1 44.78,44.77l0,614.8" id="svg_1"/>
    <path class="cls-1" d="m498.25,1106.23l9.06,0a37.93,37.93 0 0 0 37.93,-37.92l0,-136.55a29.5,29.5 0 0 1 29.5,-29.5l0,0a29.5,29.5 0 0 1 29.5,29.5l0,140.34a103.68,103.68 0 0 1 -103.67,103.67l-2.32,0" id="svg_2"/>
    <path class="cls-1" d="m408.7,1091.62l0,0a42.14,42.14 0 0 1 -42.14,-42.14l0,-122.77a30.62,30.62 0 0 0 -30.62,-30.63l0,0a30.63,30.63 0 0 0 -30.63,30.63l0,126.71a103.39,103.39 0 0 0 103.39,103.39l0,0" id="svg_3"/>
    <path class="cls-1" d="m574.74,902.26l0,165.74a76.5,76.5 0 0 1 -76.49,76.49l0,0" id="svg_4"/>
    <path class="cls-1" d="m335.93,896.08l0,155.86a72.77,72.77 0 0 0 72.76,72.77l0,0" id="svg_5"/>
    <path class="cls-1" d="m437.35,1381.25l0,-568.89s-0.47,-24.23 7.63,-29" id="svg_6"/>
    <path class="cls-1" d="m467.66,1413.51l0,-601.15s1.16,-20.58 -4.06,-29" id="svg_7"/>
    <path class="cls-1" d="m1470.87,1346.37l0,-519a44.76,44.76 0 0 0 -44.77,-44.77l0,0a44.77,44.77 0 0 0 -44.78,44.77l0,614.81" id="svg_8"/>
    <path class="cls-1" d="m1381.32,1106.23l-9.06,0a37.93,37.93 0 0 1 -37.93,-37.92l0,-136.55a29.5,29.5 0 0 0 -29.5,-29.5l0,0a29.5,29.5 0 0 0 -29.5,29.5l0,140.34a103.68,103.68 0 0 0 103.67,103.67l2.32,0" id="svg_9"/>
    <path class="cls-1" d="m1470.87,1091.62l0,0a42.14,42.14 0 0 0 42.15,-42.14l0,-122.77a30.62,30.62 0 0 1 30.62,-30.63l0,0a30.63,30.63 0 0 1 30.63,30.63l0,126.71a103.39,103.39 0 0 1 -103.4,103.39l0,0" id="svg_10"/>
    <path class="cls-1" d="m1304.83,902.26l0,165.74a76.5,76.5 0 0 0 76.49,76.49l0,0" id="svg_11"/>
    <path class="cls-1" d="m1543.64,896.08l0,155.86a72.77,72.77 0 0 1 -72.77,72.77l0,0" id="svg_12"/>
    <path class="cls-1" d="m1442.22,1381.25l0,-568.89s0.47,-24.23 -7.63,-29" id="svg_13"/>
    <path class="cls-1" d="m1411.91,1413.51l0,-601.15s-1.16,-20.58 4.06,-29" id="svg_14"/>
    <path class="cls-1" d="m1219.53,866.4s-41.49,16 -77.62,-3.84s-49.32,-45.19 -53.51,-72.3s5.67,-44.68 6.6,-56.79s0.49,-25.41 12.52,-28.13s20.34,-0.46 28.27,-2.65s38.63,-12.46 72.5,8s55.8,56.94 53.51,86.67s-9.58,37.85 -8.9,43.41s2.44,16.39 -3.67,22.5c-8.23,8.28 -25.69,1.8 -29.7,3.13z" id="svg_15"/>
    <path class="cls-1" d="m1085.07,637.77s-42.23,11.7 -74.82,-10.76s-42.21,-48.16 -42.9,-74.74s11,-42.68 13.46,-54.31s3.63,-24.51 15.64,-26s19.79,1.4 27.75,0s39,-8.54 69.33,14.32s47,60.1 41.12,88.64s-14,35.72 -14,41.16s1.83,16.38 -6.88,22.42c-9.29,6.38 -24.65,-1.65 -28.7,-0.73z" id="svg_16"/>
    <path class="cls-1" d="m780.48,700.26s-37.42,-22.81 -43.32,-62s6.27,-63.73 25.2,-82.41s38.7,-21.12 48.83,-27.31s20.37,-14.12 29.7,-6.41s12.52,15.39 19,20.25s32.91,22.63 37,60.37s-11.68,75.42 -36.55,90.62s-35.64,14.22 -39.63,17.91s-12,12 -21.92,9.72c-12.89,-2.95 -14.87,-18.41 -18.31,-20.74z" id="svg_17"/>
    <path class="cls-1" d="m637.12,897.22s-28.12,-31.56 -22.61,-69.34s23.68,-57.09 46.4,-69s41.66,-8.64 52.75,-11.51s25.43,-4.39 31.9,3.48c7.41,9 4.56,16.67 9.16,23s24,30.14 17.17,66.12s-31.95,66.36 -59.18,73.4s-36.89,3.13 -41.61,5.42s-15.73,6.85 -23,3.48c-10.18,-4.74 -8.46,-21.93 -10.98,-25.05z" id="svg_18"/>
    <path class="cls-1" d="m802,423.4a94.12,94.12 0 0 1 -27.63,82.6a94.2,94.2 0 0 1 -24.24,-152.48a94.09,94.09 0 0 1 51.87,69.88z" id="svg_19"/>
    <path class="cls-1" d="m690.72,444.19a94.1,94.1 0 0 1 56.53,66.19a94.19,94.19 0 0 1 -143.16,-57.81a94.08,94.08 0 0 1 86.63,-8.38z" id="svg_20"/>
    <path class="cls-1" d="m636.93,606.34a86.82,86.82 0 0 1 32.53,73.43a86.92,86.92 0 0 1 -111.34,-88.87a86.81,86.81 0 0 1 78.81,15.44z" id="svg_21"/>
    <path class="cls-1" d="m559.18,695.38a81.8,81.8 0 0 1 71.82,23.77a81.87,81.87 0 0 1 -132.47,21.44a81.79,81.79 0 0 1 60.65,-45.21z" id="svg_22"/>
    <path class="cls-1" d="m724.54,945.78a90.15,90.15 0 0 1 77.74,-30.11a90.2,90.2 0 0 1 -97.62,111.06a90.1,90.1 0 0 1 19.88,-80.95z" id="svg_23"/>
    <path class="cls-1" d="m1080,988.66a91.82,91.82 0 0 1 -13.59,-83.84a91.9,91.9 0 0 1 90.06,120.75a91.81,91.81 0 0 1 -76.47,-36.91z" id="svg_24"/>
    <path class="cls-1" d="m948.07,367a95.35,95.35 0 0 1 68,-56.15a95.44,95.44 0 0 1 -61,144.06a95.33,95.33 0 0 1 -7,-87.91z" id="svg_25"/>
    <path class="cls-1" d="m1139.39,384.82a95.39,95.39 0 0 1 85.7,-20.84a95.43,95.43 0 0 1 -117.75,103a95.3,95.3 0 0 1 32.05,-82.16z" id="svg_26"/>
    <path class="cls-1" d="m1235.2,570.14a102.18,102.18 0 0 1 94.49,1.26a102.25,102.25 0 0 1 -149.69,75.41a102.14,102.14 0 0 1 55.2,-76.67z" id="svg_27"/>
    <path class="cls-1" d="m1321.71,680.62a82.47,82.47 0 0 1 56.4,51.35a82.54,82.54 0 0 1 -130.79,-34.57a82.42,82.42 0 0 1 74.39,-16.78z" id="svg_28"/>
    <path class="cls-1" d="m935.8,713.83a91.61,91.61 0 0 1 79.05,-30.49a91.67,91.67 0 0 1 -99.38,112.72a91.59,91.59 0 0 1 20.33,-82.23z" id="svg_29"/>
    <path class="cls-1" d="m844.88,423.12a84.94,84.94 0 0 1 -19.77,-76a85,85 0 0 1 93.39,103.38a84.91,84.91 0 0 1 -73.62,-27.38z" id="svg_30"/>
    <line class="cls-1" id="svg_31" x1="528.38" x2="1349.32" y1="1335.49" y2="1335.49"/>
    <path class="cls-1" d="m893,1607s-2.86,-68.63 45.82,-125.27c71.22,-82.87 215.79,-116.1 243.17,-123.48" id="svg_32"/>
    <path class="cls-1" d="m970.88,1607.73s-24,-66.89 27.81,-126c56.48,-64.48 156,-100.48 269.51,-121" id="svg_33"/>
    <path class="cls-1" d="m1054.08,1598.88s-32.76,-30.07 -25,-78.52c10.11,-63.5 140.37,-140.85 320.28,-159.58" id="svg_34"/>
    <path class="cls-1" d="m1128.61,1581.58s-44.73,-36.75 -24.53,-84c22.41,-52.47 133.42,-102.48 245.24,-111.47" id="svg_35"/>
    <path class="cls-1" d="m1225.24,1544.8s-38.18,-14.89 -38.17,-46.32c0,-36 66.17,-82.64 162.25,-91.35" id="svg_36"/>
    <path class="cls-1" d="m1269.34,1521.91s-28.12,-24.37 -8.8,-54.37c21.35,-33.15 88.78,-37.26 88.78,-37.26" id="svg_37"/>
    <path class="cls-1" d="m1301.54,1502.42s-10.46,-22.47 2.07,-37.13c15.37,-18 45.71,-19.38 45.71,-19.38" id="svg_38"/>
    <path class="cls-1" d="m796.69,1593.26s4.8,-52.8 58.72,-108.16c47.2,-48.47 167.73,-113.37 242.92,-124.32" id="svg_39"/>
    <path class="cls-1" d="m705.86,1566.56s35.76,-56.6 106.56,-106.33s180.37,-93.55 215.41,-99.45" id="svg_40"/>
    <path class="cls-1" d="m634.93,1535.25s60.54,-43.87 118.54,-78.39c62.32,-37.08 165.15,-86 211.88,-96.08" id="svg_41"/>
    <path class="cls-1" d="m567.58,1495.55s194.27,-90.1 319.86,-134.77" id="svg_42"/>
    <path class="cls-1" d="m510.43,1452.61s178.51,-45.48 305.79,-91.83" id="svg_43"/>
    <line class="cls-1" id="svg_44" x1="528.66" x2="761.01" y1="1394.09" y2="1360.78"/>
    <line class="cls-1" id="svg_45" x1="528.66" x2="669.63" y1="1360.78" y2="1360.78"/>
    <path class="cls-1" d="m819.59,1335.49s0.42,-15.59 17.7,-20.23s31.6,2.11 33.71,0s21.49,-21.49 27,-66.16s0.42,-216.91 0,-221.82s-14.75,-24.72 -22.75,-34.41s-27,-24.44 -34.14,-35.82s-27.81,-86.39 -30.34,-96.51s39.19,67.43 44.88,76.28s44.88,31.61 44.88,31.61s0.43,-26.13 0,-36.25s-55.63,-86.35 -64.48,-98s-24.82,-36.89 -31.16,-54.17s-18.17,-29.01 -33.77,-43.37s-43.26,-28.8 -46.92,-32.17s-17.41,-44.11 -20.51,-54.22" id="svg_46"/>
    <line class="cls-1" id="svg_47" x1="669.63" x2="724.2" y1="682.78" y2="704.47"/>
    <path class="cls-1" d="m913.39,896.08s13.94,-21.35 22.37,-28.09s54.51,-37.65 57.88,-40.46s51.81,-92.15 57.93,-103.39s83.11,-64.62 92.66,-73.89s30,-85.69 35.78,-111.54" id="svg_48"/>
    <path class="cls-1" d="m1180,646.82s-27.92,2 -35.78,3.43" id="svg_49"/>
    <path class="cls-1" d="m1024,826.6s32.4,-103.74 42.61,-116.87" id="svg_50"/>
    <path class="cls-1" d="m1066.59,821.91s-58.91,29.22 -67.33,33.15s-28.48,27.54 -31.94,34.84s-5.71,89.53 -5.71,89.53s36,-31.09 43.83,-39.52s39.84,-73.41 39.84,-73.41" id="svg_51"/>
    <line class="cls-1" id="svg_52" x1="1023.98" x2="1066.59" y1="826.6" y2="821.91"/>
    <path class="cls-1" d="m1069.49,1335.49s-5,-16 -24.44,-23.18s-32.45,-2.1 -42.56,-6.32s-24.87,-31.61 -29.08,-74.59s0,-183.32 0,-183.32s-0.42,-25.71 8.43,-38.35s38.35,-40.46 42.16,-46.73s14.75,-63.36 16,-66.87s54,-8.15 63.64,-9.41s38.35,11.1 38.35,11.1" id="svg_53"/>
    <path class="cls-1" d="m911,893.83s-63.74,-87.43 -68.27,-97.19c-3.8,-8.16 -1.07,-42.72 -1.07,-42.72" id="svg_54"/>
    <line class="cls-1" id="svg_55" x1="792.14" x2="843.77" y1="758.08" y2="798.49"/>
    <path class="cls-1" d="m891.24,866.5c-0.43,-0.6 -4.24,-118.14 -4.24,-121.5s37.1,-67.17 52.67,-93.1c9.7,-16.14 -14.32,-107 -16.43,-115s29.09,-76.68 31.82,-81.95" id="svg_56"/>
    <path class="cls-1" d="m918.5,450.5s8.88,50.38 11.25,63.33" id="svg_57"/>
    <path class="cls-1" d="m923.26,536.88s-33.72,-27.81 -30.34,-25.7" id="svg_58"/>
    <line class="cls-1" id="svg_59" x1="961.61" x2="939.69" y1="638.03" y2="651.93"/>
    <path class="cls-1" d="m926.93,877.38s-24.64,-58.36 -23.9,-64c0.51,-3.92 12,-19.46 12,-19.46" id="svg_60"/>
    <path class="cls-1" d="m653.54,1305.57l0,-176.57a19.81,19.81 0 0 1 19.81,-19.81l0,0a19.81,19.81 0 0 1 19.81,19.81l0,176.16" id="svg_61"/>
    <path class="cls-1" d="m693.16,1256.26l17.07,0a28,28 0 0 0 28,-28l0,-50.89a11.27,11.27 0 0 0 -11.23,-11.29l0,0a11.26,11.26 0 0 0 -11.27,11.27l0,47.41a7.06,7.06 0 0 1 -7.06,7.06l-15.51,0" id="svg_62"/>
    <path class="cls-1" d="m653.54,1260.48l-20.43,0a25.5,25.5 0 0 1 -25.5,-25.5l0,-53.63a11.48,11.48 0 0 1 11.48,-11.48l0,0a11.48,11.48 0 0 1 11.49,11.48l0,49.73a6.21,6.21 0 0 0 6.21,6.22l16.75,0" id="svg_63"/>
    <path class="cls-1" d="m1189.27,1305.57l0,-176.57a19.81,19.81 0 0 1 19.81,-19.81l0,0a19.8,19.8 0 0 1 19.8,19.81l0,176.16" id="svg_64"/>
    <path class="cls-1" d="m1228.88,1256.26l17.12,0a28,28 0 0 0 28,-28l0,-50.89a11.27,11.27 0 0 0 -11.28,-11.27l0,0a11.27,11.27 0 0 0 -11.27,11.27l0,47.37a7.1,7.1 0 0 1 -7.1,7.1l-15.45,0" id="svg_65"/>
    <path class="cls-1" d="m1189.27,1260.48l-20.44,0a25.5,25.5 0 0 1 -25.5,-25.5l0,-53.63a11.49,11.49 0 0 1 11.49,-11.48l0,0a11.48,11.48 0 0 1 11.48,11.48l0,50.34a5.61,5.61 0 0 0 5.61,5.61l17.36,0" id="svg_66"/>
    <polyline class="cls-1" id="svg_67" points="528.38 1277.05 574.74 1261.78 620.53 1290.26 620.53 1302.9 528.38 1302.9"/>
    <path class="cls-1" d="m1124.93,1264.69c-8.24,-12.3 -9.58,-22.53 -9.36,-53.52c0.28,-38.91 1.12,-67.84 1.12,-67.84a204,204 0 0 0 -36.52,-1.7l-18.44,24.45c-18.44,24.44 -59.66,45.09 -59.66,45.09s-2,44.95 17.26,59.63s77.42,25.92 77.42,25.92s35.12,4.21 40.73,5.06s20.23,1.68 20.23,1.68l0,-16.85s-26.83,-4.78 -37.23,-30.35" id="svg_68"/>
    <path class="cls-1" d="m1008,1242.36c1.68,0 52.69,-16.22 77,-42.56c30.06,-32.6 26.47,-55.28 26.47,-55.28" id="svg_69"/>
    <path class="cls-1" d="m1018.5,1264.69s46.48,-10.06 68.27,-24c24.78,-15.87 27.4,-28 27.4,-28" id="svg_70"/>
    <path class="cls-1" d="m1056.76,1285.34c4.31,-0.84 39.8,-8.19 60.54,-31.79" id="svg_71"/>
    <path class="cls-1" d="m861.59,1233.22c-2,18.83 -5.76,27.26 -5.76,27.26c-4.49,2.53 -47.06,19.38 -74.59,29.5s-59,10.67 -59,10.67l0,-15.31s42.14,-24 59,-38.07s27,-21.35 28.65,-21.35s43.27,5.62 51.7,7.3" id="svg_72"/>
    <path class="cls-2" d="m1349.32,1223.39c-3.79,-4.21 -45,-25.44 -45,-25.44s5.42,41.64 -7.87,62.53a50.37,50.37 0 0 1 -36.93,22.89l-0.16,25l89.91,1.58l0,-86.53l0.05,-0.03z" id="svg_73"/>
    <path class="cls-3" d="m489.22,671.15l-19.22,-19.22l19.21,-19.21l19.21,19.21l-19.2,19.22z" id="svg_74"/>
    <path class="cls-3" d="m453.47,736.22l-17.58,-17.58l17.58,-17.58l17.58,17.58l-17.58,17.58z" id="svg_75"/>
    <path class="cls-3" d="m577.16,556.1l-19.16,-19.22l19.21,-19.21l19.21,19.21l-19.26,19.22z" id="svg_76"/>
    <path class="cls-3" d="m675.67,408.88l-19.21,-19.21l19.21,-19.22l19.21,19.22l-19.21,19.21z" id="svg_77"/>
    <path class="cls-3" d="m686.38,602.73l-19.21,-19.21l19.21,-19.21l19.21,19.21l-19.21,19.21z" id="svg_78"/>
    <path class="cls-3" d="m351.73,805.62l-16.19,-16.19l16.19,-16.19l16.19,16.19l-16.19,16.19z" id="svg_79"/>
    <path class="cls-3" d="m560.5,841.58l-13.1,-13.1l13.1,-13.1l13.1,13.1l-13.1,13.1z" id="svg_80"/>
    <path class="cls-3" d="m918.73,336.43l-15.73,-15.76l15.75,-15.75l15.75,15.75l-15.77,15.76z" id="svg_81"/>
    <path class="cls-3" d="m1092.21,368l-15.75,-15.75l15.75,-15.75l15.79,15.7l-15.79,15.8z" id="svg_82"/>
    <path class="cls-3" d="m1067.33,421.05l-15.76,-15.75l15.76,-15.75l15.75,15.75l-15.75,15.75z" id="svg_83"/>
    <path class="cls-3" d="m1297.85,520.24l-20.11,-20.11l20.11,-20.13l20.15,20.13l-20.15,20.11z" id="svg_84"/>
    <path class="cls-3" d="m1449,719.34l-20.11,-20.11l20.11,-20.11l20.11,20.11l-20.11,20.11z" id="svg_85"/>
    <path class="cls-3" d="m1198.86,944l-15.72,-15.72l15.72,-15.71l15.72,15.71l-15.72,15.72z" id="svg_86"/>
    <path class="cls-3" d="m1320.32,840l-13.44,-13.43l13.44,-13.44l13.43,13.44l-13.43,13.43z" id="svg_87"/>
    <path class="cls-3" d="m1267.36,441.08l-15,-15l15,-15l15,15l-15,15z" id="svg_88"/>
    <path class="cls-3" d="m1391.74,663.74l-15,-15l15,-15l15,15l-15,15z" id="svg_89"/>
    <line class="cls-1" id="svg_90" x1="1051.16" x2="1051.16" y1="1044.71" y2="1074.63"/>
    <line class="cls-1" id="svg_91" x1="1036.2" x2="1066.12" y1="1059.67" y2="1059.67"/>
    <line class="cls-1" id="svg_92" x1="815.44" x2="815.44" y1="1053.48" y2="1090.43"/>
    <line class="cls-1" id="svg_93" x1="796.97" x2="833.92" y1="1071.96" y2="1071.96"/>
    <line class="cls-1" id="svg_94" x1="989.14" x2="971.61" y1="1119.44" y2="1144.52"/>
    <path class="cls-3" d="m613.44,729.9l-0.05,-0.06l-0.2,-0.08l-0.48,-0.18c-0.3,-0.12 -0.71,-0.23 -1.07,-0.34c-0.72,-0.25 -1.53,-0.44 -2.31,-0.66s-1.6,-0.39 -2.42,-0.58s-1.64,-0.38 -2.48,-0.52l-2.53,-0.48l-2.57,-0.38c-1.71,-0.28 -3.45,-0.44 -5.2,-0.62a148.24,148.24 0 0 0 -21.43,-0.4c-3.6,0.3 -7.26,0.48 -10.87,1c-1.82,0.25 -3.66,0.42 -5.47,0.73l-5.44,1c-0.91,0.16 -1.83,0.31 -2.74,0.49l-2.7,0.62l-5.48,1.24c-3.61,0.92 -7.19,2 -10.82,3c3.23,-1.88 6.45,-3.86 9.76,-5.7l5,-2.64l2.53,-1.32c0.85,-0.42 1.72,-0.8 2.58,-1.21l5.21,-2.4c1.74,-0.79 3.54,-1.45 5.31,-2.19c3.55,-1.51 7.22,-2.68 10.89,-4a162.58,162.58 0 0 1 22.91,-5.56c2,-0.32 3.95,-0.64 6,-0.84l3,-0.34l3.05,-0.23c1,-0.09 2,-0.13 3.09,-0.16s2.07,-0.09 3.14,-0.07s2.11,0 3.23,0c0.57,0 1.08,0 1.69,0.08l0.9,0.08c0.16,0 0.26,0 0.49,0l0.62,0.09l5.49,0.77a12.75,12.75 0 1 1 -10.68,21.75l0.05,0.11z" id="svg_95"/>
    <path class="cls-3" d="m896.85,445.68a6.47,6.47 0 0 0 -0.13,-1c-0.06,-0.38 -0.15,-0.81 -0.24,-1.23c-0.16,-0.84 -0.35,-1.7 -0.57,-2.57c-0.39,-1.73 -0.93,-3.48 -1.41,-5.24c-1.09,-3.5 -2.29,-7 -3.69,-10.48a133.59,133.59 0 0 0 -10.13,-20.27a135.31,135.31 0 0 0 -13.57,-18.71l-1.91,-2.18l-1,-1.12l-1,-1l-4.11,-4.22c-1.34,-1.45 -2.85,-2.71 -4.32,-4l-4.44,-4l5.28,2.79c1.75,0.94 3.57,1.82 5.24,2.92l5.13,3.18l1.29,0.81l1.24,0.87l2.47,1.76a144.38,144.38 0 0 1 18.74,15.8a147.44,147.44 0 0 1 16.2,19c2.48,3.41 4.78,7 7,10.63c1.06,1.87 2.16,3.71 3.16,5.68c0.51,1 1,2 1.49,3c0.25,0.51 0.49,1 0.73,1.57s0.47,1 0.77,1.82l1.33,3.51a12.2,12.2 0 0 1 -22.89,8.43a12.38,12.38 0 0 1 -0.66,-5.75z" id="svg_96"/>
    <path class="cls-3" d="m763.79,490.17a13.15,13.15 0 0 0 0.43,-1.3c0.16,-0.47 0.3,-1 0.44,-1.5c0.29,-1 0.58,-2.06 0.83,-3.13c0.55,-2.12 1,-4.29 1.47,-6.45s0.84,-4.38 1.22,-6.59s0.7,-4.43 1,-6.66a183.1,183.1 0 0 0 1.52,-27.15l0,-3.43c0,-1.15 -0.13,-2.28 -0.18,-3.42l-0.44,-6.87l-0.81,-6.85c-0.15,-1.15 -0.23,-2.31 -0.45,-3.44l-0.6,-3.41a169.08,169.08 0 0 0 -7,-27.07a172,172 0 0 1 12.55,25.51l1.34,3.34c0.45,1.11 0.78,2.26 1.17,3.39l2.29,6.85l1.92,7c0.31,1.16 0.68,2.33 0.92,3.5l0.79,3.55a197.37,197.37 0 0 1 4.34,28.89c0.2,2.45 0.29,4.9 0.44,7.37s0.15,4.93 0.17,7.41s0,5 -0.14,7.5c0,1.25 -0.11,2.53 -0.2,3.81c0,0.64 -0.08,1.28 -0.15,2s-0.11,1.29 -0.23,2.14l-0.18,1.31a11.72,11.72 0 1 1 -23.25,-3.34a12.57,12.57 0 0 1 0.79,-2.96z" id="svg_97"/>
    <path class="cls-3" d="m723.83,512.72c0.06,0 -0.26,-0.5 -0.43,-0.8s-0.47,-0.73 -0.71,-1.1c-0.47,-0.74 -1.06,-1.5 -1.61,-2.26s-1.18,-1.52 -1.79,-2.28s-1.23,-1.52 -1.91,-2.24l-2,-2.22c-0.69,-0.73 -1.42,-1.43 -2.13,-2.15s-1.4,-1.46 -2.17,-2.13l-2.27,-2.05a131.54,131.54 0 0 0 -20.3,-14.58c-3.72,-2 -7.43,-4.16 -11.36,-5.86l-2.93,-1.36c-1,-0.46 -2,-0.93 -3,-1.29l-6,-2.37c-1,-0.38 -2,-0.82 -3.05,-1.15l-3.1,-1l-6.24,-2c-4.21,-1.18 -8.48,-2.17 -12.77,-3.27c4.39,0.14 8.83,0.18 13.26,0.43l6.65,0.6l3.34,0.31c1.12,0.1 2.21,0.32 3.32,0.47l6.66,1c1.13,0.15 2.22,0.4 3.32,0.64l3.31,0.73c4.46,0.87 8.8,2.23 13.21,3.48a146.76,146.76 0 0 1 25.59,10.95l3.09,1.75c1,0.58 2,1.25 3,1.88s2,1.27 3,2l3,2.09c1,0.68 2,1.45 2.93,2.21s1.94,1.5 2.88,2.34s1.91,1.62 2.86,2.55c0.48,0.47 0.94,0.86 1.44,1.39s0.91,0.9 1.62,1.77a11.55,11.55 0 1 1 -18.73,13.52l0.02,0z" id="svg_98"/>
    <path class="cls-3" d="m943.55,446.49c0.11,-0.87 0.22,-1.43 0.33,-2.11l0.37,-1.91c0.25,-1.26 0.51,-2.5 0.79,-3.73c0.55,-2.47 1.15,-4.89 1.8,-7.3q1.93,-7.21 4.37,-14.22a186.57,186.57 0 0 1 11.79,-27.06a146.45,146.45 0 0 1 7.54,-12.59a128.19,128.19 0 0 1 8.73,-11.69a113.7,113.7 0 0 1 10,-10.49a107.61,107.61 0 0 1 11.15,-8.95a105,105 0 0 0 -16.42,22.7a118.19,118.19 0 0 0 -5.85,12.5c-1.72,4.26 -3.24,8.58 -4.52,13a171.77,171.77 0 0 0 -5.61,26.68c-0.59,4.49 -1,9 -1.28,13.47c-0.12,2.24 -0.22,4.48 -0.25,6.69c0,1.11 0,2.21 0,3.29l0,1.61c0,0.49 0,1.1 0.07,1.41a11.72,11.72 0 0 1 -23.24,3.1a11.24,11.24 0 0 1 0,-3l0.23,-1.4z" id="svg_99"/>
    <path class="cls-3" d="m584.85,609.12c8.24,3.17 16.34,6.75 24.36,10.58s15.92,8 23.68,12.57a197.72,197.72 0 0 1 22.69,15.42a114.87,114.87 0 0 1 10.66,9.52a81.45,81.45 0 0 1 9.69,11.7l0.25,0.38a11.65,11.65 0 1 1 -19.35,13a11.25,11.25 0 0 1 -1.22,-2.36a58.62,58.62 0 0 0 -5.1,-10a95.66,95.66 0 0 0 -7.08,-9.87a183.38,183.38 0 0 0 -17.43,-18.52c-6.3,-5.9 -13,-11.53 -19.83,-16.93s-13.98,-10.61 -21.32,-15.49z" id="svg_100"/>
    <path class="cls-3" d="m1104.49,455c0.46,-0.69 0.83,-1.18 1.21,-1.71s0.77,-1 1.15,-1.51c0.76,-1 1.52,-2 2.3,-2.91c1.53,-1.91 3.12,-3.73 4.71,-5.55s3.25,-3.56 4.87,-5.32l5,-5.1a194.42,194.42 0 0 1 21.71,-18.33c3.75,-2.85 7.76,-5.34 11.67,-7.89c2,-1.22 4.07,-2.35 6.08,-3.52l3,-1.72l3.14,-1.55c2.09,-1 4.15,-2.08 6.25,-3.05l6.42,-2.65c1.07,-0.43 2.12,-0.9 3.2,-1.29l3.28,-1.08l6.52,-2.14l-5.91,3.45l-2.93,1.71c-1,0.6 -1.89,1.28 -2.82,1.91l-5.58,3.83c-1.8,1.36 -3.55,2.79 -5.31,4.17l-2.63,2.08l-2.51,2.24c-1.66,1.5 -3.34,3 -5,4.48c-3.14,3.18 -6.33,6.24 -9.23,9.61a181.1,181.1 0 0 0 -16.01,20.84l-3.52,5.51c-1.1,1.88 -2.23,3.73 -3.28,5.61s-2.09,3.77 -3,5.67c-0.5,0.94 -1,1.88 -1.4,2.82c-0.23,0.47 -0.44,0.94 -0.64,1.38s-0.42,0.94 -0.51,1.23a11.73,11.73 0 1 1 -22.27,-7.36a11.57,11.57 0 0 1 1.32,-2.74l0.72,-1.12z" id="svg_101"/>
    <path class="cls-3" d="m1182.36,634.17c0.2,-0.24 0.31,-0.37 0.44,-0.51l0.38,-0.42l0.72,-0.77c0.47,-0.5 0.94,-1 1.41,-1.45c0.94,-0.95 1.89,-1.86 2.84,-2.75c1.9,-1.77 3.82,-3.48 5.78,-5.13c3.91,-3.3 8,-6.36 12.09,-9.24a166.3,166.3 0 0 1 26,-14.85c4.51,-2.09 9.13,-3.88 13.77,-5.52s9.37,-3 14.11,-4.16a150.72,150.72 0 0 1 28.7,-4a148.29,148.29 0 0 0 -26.79,9.47c-4.25,2 -8.39,4.19 -12.39,6.57s-7.89,4.91 -11.61,7.65a153.09,153.09 0 0 0 -20.63,18.08c-3.12,3.29 -6.11,6.68 -8.87,10.19c-1.39,1.75 -2.71,3.53 -4,5.32c-0.63,0.89 -1.24,1.79 -1.83,2.68l-0.84,1.32l-0.38,0.63l-0.17,0.29c-0.05,0.1 -0.11,0.21 -0.09,0.2a11.56,11.56 0 0 1 -18.7,-13.58l0.06,-0.02z" id="svg_102"/>
    <path class="cls-3" d="m1256.86,688.23l0.92,0.1l0.82,0.11l1.63,0.23c1.06,0.16 2.13,0.31 3.18,0.49c2.1,0.35 4.18,0.71 6.25,1.12c4.14,0.78 8.24,1.69 12.31,2.67q12.19,3 24,7.12a191.06,191.06 0 0 1 22.82,9.87a130,130 0 0 1 20.55,13.38a128.13,128.13 0 0 0 -22.61,-8a185.28,185.28 0 0 0 -23.35,-4q-11.77,-1.17 -23.52,-1.18c-3.91,0 -7.81,0.09 -11.69,0.29q-2.91,0.13 -5.78,0.36c-1,0.06 -1.9,0.16 -2.85,0.24l-1.39,0.14l-0.68,0.08l-0.59,0.08a11.67,11.67 0 1 1 -0.45,-23.16l0.43,0.06z" id="svg_103"/>
    <path class="cls-3" d="m1077.86,900.55c0.56,0.5 1,0.91 1.43,1.33s0.88,0.85 1.29,1.27c0.84,0.84 1.69,1.67 2.49,2.52c1.64,1.68 3.22,3.39 4.77,5.11s3.06,3.47 4.58,5.2s2.94,3.55 4.4,5.31a237.81,237.81 0 0 1 15.92,22.32a187.71,187.71 0 0 1 12.85,23.94l2.66,6.21c0.81,2.09 1.53,4.23 2.29,6.33l1.13,3.15c0.33,1.06 0.61,2.15 0.92,3.22l1.8,6.41l-3.13,-5.85c-0.53,-1 -1,-1.95 -1.57,-2.9l-1.76,-2.8c-1.18,-1.86 -2.3,-3.73 -3.51,-5.54l-3.82,-5.33a179.26,179.26 0 0 0 -16.94,-19.69a220.54,220.54 0 0 0 -19.12,-17.24l-5,-3.93c-1.72,-1.25 -3.4,-2.55 -5.14,-3.76s-3.46,-2.42 -5.21,-3.57c-0.87,-0.59 -1.74,-1.13 -2.61,-1.68c-0.44,-0.29 -0.86,-0.55 -1.29,-0.8s-0.86,-0.53 -1.18,-0.69a11.69,11.69 0 1 1 13,-19.21l0.75,0.67z" id="svg_104"/>
    <path class="cls-3" d="m800.36,933.28a11.37,11.37 0 0 0 -1.11,0.51c-0.41,0.19 -0.87,0.45 -1.3,0.67c-0.88,0.45 -1.77,0.95 -2.66,1.46s-1.79,1 -2.68,1.56s-1.79,1 -2.67,1.63c-1.76,1.14 -3.55,2.25 -5.29,3.47l-2.62,1.8l-2.58,1.88a217.89,217.89 0 0 0 -19.89,16.49c-1.61,1.46 -3.11,3 -4.68,4.54l-2.33,2.29c-0.78,0.77 -1.5,1.58 -2.26,2.37l-4.5,4.79c-1.45,1.64 -2.86,3.31 -4.31,5c-2.94,3.28 -5.56,6.81 -8.33,10.28c-1.41,1.71 -2.62,3.56 -3.94,5.34l-3.88,5.43l2.63,-6.14c0.9,-2 1.7,-4.14 2.72,-6.13c2,-4 3.82,-8.12 6,-12c1.07,-2 2.13,-4 3.23,-6l3.47,-5.83c0.58,-1 1.14,-2 1.76,-2.91l1.85,-2.85c1.26,-1.89 2.45,-3.84 3.77,-5.7a232.56,232.56 0 0 1 16.92,-21.72l2.32,-2.61l2.38,-2.54c1.58,-1.72 3.25,-3.37 4.91,-5c0.81,-0.85 1.7,-1.64 2.55,-2.46s1.72,-1.63 2.63,-2.43s1.78,-1.61 2.74,-2.4c0.48,-0.4 0.91,-0.79 1.44,-1.2s0.94,-0.78 1.67,-1.3l1.9,-1.36a11.88,11.88 0 1 1 13.78,19.3a12,12 0 0 1 -3.64,1.77z" id="svg_105"/>
    <path class="cls-3" d="m907.91,781c0.41,-0.83 0.7,-1.32 1,-1.92s0.65,-1.12 1,-1.68c0.65,-1.1 1.32,-2.15 2,-3.19s1.35,-2.08 2.05,-3.08s1.37,-2 2.09,-3c1.44,-2 2.83,-3.93 4.35,-5.81s3,-3.79 4.53,-5.6s3.07,-3.66 4.7,-5.4s3.16,-3.55 4.86,-5.21s3.31,-3.39 5,-5l5.17,-4.83l1.34,-1.28l1.34,-1.14l2.68,-2.29c1.79,-1.52 3.54,-3.06 5.42,-4.47l5.53,-4.28c1.87,-1.4 3.81,-2.7 5.7,-4c3.74,-2.74 7.75,-5.1 11.63,-7.57c1.92,-1.26 4,-2.3 6,-3.44l6,-3.34l-5.21,4.53c-1.71,1.52 -3.48,2.94 -5.08,4.57c-3.26,3.19 -6.59,6.25 -9.61,9.64c-1.53,1.67 -3.1,3.28 -4.58,5l-4.35,5.16c-1.48,1.68 -2.82,3.49 -4.19,5.26l-2,2.66l-1,1.33l-1,1.37l-3.82,5.47c-1.22,1.85 -2.4,3.74 -3.59,5.6s-2.27,3.79 -3.4,5.68s-2.16,3.83 -3.19,5.76s-2,3.88 -3,5.83s-1.82,3.94 -2.71,5.89c-0.45,1 -0.83,2 -1.24,3s-0.81,2 -1.16,3s-0.74,2 -1.06,2.93c-0.16,0.48 -0.34,1 -0.47,1.42a10.12,10.12 0 0 0 -0.33,1.21a11.86,11.86 0 1 1 -22.46,-6.57l1.06,-2.21z" id="svg_106"/>
    <path class="cls-1" d="m890,1331.28s13.06,-8.43 20.65,-18.55a35,35 0 0 1 37.59,-12.08c15.18,4.5 33.21,34.84 56.81,34.84" id="svg_107"/>
    <path class="cls-3" d="m920.94,1256.26a111.84,111.84 0 0 1 19,7.84a154.3,154.3 0 0 1 17.82,10.74c1.45,1 2.81,2.06 4.23,3.08s2.83,2.09 4.17,3.21l4.09,3.34c1.33,1.15 2.62,2.34 3.94,3.51c2.68,2.31 5.11,4.87 7.65,7.36c1.29,1.23 2.42,2.59 3.64,3.89l3.59,4a8.31,8.31 0 0 1 -12.31,11.17a8.06,8.06 0 0 1 -1,-1.31l-0.21,-0.34l-2.47,-4.18c-0.85,-1.38 -1.61,-2.83 -2.54,-4.16c-1.82,-2.69 -3.55,-5.49 -5.55,-8.07c-1,-1.31 -1.94,-2.65 -2.94,-4l-3.12,-3.82c-1,-1.3 -2.12,-2.52 -3.22,-3.75s-2.18,-2.5 -3.35,-3.67a147.56,147.56 0 0 0 -14.69,-13.54a108.42,108.42 0 0 0 -16.73,-11.3z" id="svg_108"/>
    <path class="cls-3" d="m920.94,1233.65a111.2,111.2 0 0 1 19.11,7.67a154,154 0 0 1 18,10.6c1.47,1 2.84,2 4.28,3s2.85,2.06 4.21,3.18l4.13,3.31c1.35,1.14 2.66,2.33 4,3.5c2.72,2.29 5.17,4.84 7.75,7.32c1.31,1.22 2.46,2.58 3.69,3.87l3.65,4a9.15,9.15 0 1 1 -13.44,12.42a9.35,9.35 0 0 1 -1.18,-1.59l-0.21,-0.36l-2.42,-4.19c-0.83,-1.39 -1.57,-2.85 -2.49,-4.18c-1.78,-2.7 -3.47,-5.51 -5.44,-8.1c-1,-1.32 -1.9,-2.67 -2.89,-4l-3.07,-3.84c-1,-1.31 -2.09,-2.54 -3.18,-3.78s-2.15,-2.51 -3.3,-3.7a148.38,148.38 0 0 0 -14.53,-13.68a108.85,108.85 0 0 0 -16.67,-11.45z" id="svg_109"/>
    <path class="cls-3" d="m922.63,1211.17a142.8,142.8 0 0 1 15.45,6.67c5,2.51 10,5.23 14.88,8.22s9.63,6.14 14.24,9.59s9.11,7.1 13.51,10.93a8.32,8.32 0 1 1 -10.92,12.56a8.47,8.47 0 0 1 -1.34,-1.48l-0.1,-0.14c-3,-4.36 -6.18,-8.72 -9.64,-12.86s-7.07,-8.21 -10.87,-12.13s-7.84,-7.65 -12,-11.24a140.3,140.3 0 0 0 -13.21,-10.12z" id="svg_110"/>
    <path class="cls-3" d="m922.63,1185a113,113 0 0 1 14.74,6q7.21,3.5 14.14,7.71c1.15,0.69 2.28,1.43 3.43,2.15s2.28,1.46 3.39,2.23l3.37,2.29l3.29,2.4c2.23,1.58 4.33,3.32 6.5,5s4.19,3.52 6.3,5.29a8.34,8.34 0 1 1 -10.72,12.78a7.85,7.85 0 0 1 -1.44,-1.56l-0.2,-0.28c-1.44,-2.06 -2.85,-4.17 -4.35,-6.21s-3,-4.1 -4.63,-6.06l-2.41,-3l-2.5,-2.91c-0.83,-1 -1.68,-1.93 -2.56,-2.87s-1.73,-1.9 -2.63,-2.83c-3.56,-3.72 -7.3,-7.3 -11.24,-10.7a111.71,111.71 0 0 0 -12.48,-9.43z" id="svg_111"/>
    <path class="cls-3" d="m922.63,1162a106.59,106.59 0 0 1 14.49,5.81c4.73,2.27 9.35,4.81 13.89,7.54c2.22,1.42 4.51,2.78 6.68,4.3l3.31,2.25l3.23,2.35c2.19,1.55 4.23,3.25 6.36,4.89s4.12,3.44 6.19,5.17a8.34,8.34 0 1 1 -10.71,12.8a8.17,8.17 0 0 1 -1.47,-1.59l-0.18,-0.27c-1.41,-2 -2.79,-4.09 -4.24,-6.11s-2.93,-4 -4.52,-6l-2.34,-2.93l-2.44,-2.86c-1.61,-1.94 -3.34,-3.74 -5,-5.62c-3.48,-3.64 -7.12,-7.17 -11,-10.51a103.23,103.23 0 0 0 -12.25,-9.22z" id="svg_112"/>
    <path class="cls-3" d="m922.63,1139a91,91 0 0 1 14.54,5.18a148.5,148.5 0 0 1 13.92,7.13c2.22,1.37 4.51,2.69 6.68,4.16c1.1,0.73 2.21,1.45 3.3,2.2l3.23,2.3l1.61,1.15l1.57,1.21l3.16,2.44c2.07,1.66 4.08,3.4 6.14,5.11a8.35,8.35 0 1 1 -12.17,11.22l-0.19,-0.28c-1.39,-2 -2.74,-4 -4.17,-6l-2.2,-2.94l-1.1,-1.48l-1.16,-1.43l-2.32,-2.87c-0.79,-0.94 -1.61,-1.85 -2.42,-2.79c-1.6,-1.89 -3.33,-3.64 -5,-5.47a141.3,141.3 0 0 0 -11,-10.13a89.39,89.39 0 0 0 -12.42,-8.71z" id="svg_113"/>
    <path class="cls-3" d="m922.63,1116a91,91 0 0 1 14.54,5.18a148.5,148.5 0 0 1 13.92,7.13c2.22,1.37 4.51,2.68 6.68,4.16c1.1,0.73 2.21,1.44 3.3,2.19l3.23,2.3l1.61,1.16l1.57,1.21l3.16,2.44c2.07,1.65 4.08,3.39 6.14,5.11a8.35,8.35 0 1 1 -10.68,12.83a8.69,8.69 0 0 1 -1.49,-1.61l-0.19,-0.29c-1.39,-2 -2.74,-4 -4.17,-6l-2.2,-2.94l-1.1,-1.47l-1.16,-1.43l-2.32,-2.87c-0.79,-1 -1.61,-1.86 -2.42,-2.79c-1.6,-1.9 -3.33,-3.65 -5,-5.47a139.36,139.36 0 0 0 -11,-10.13a88.55,88.55 0 0 0 -12.42,-8.71z" id="svg_114"/>
    <path class="cls-3" d="m922.63,1094.36a91,91 0 0 1 14.54,5.18a148.5,148.5 0 0 1 13.92,7.13c2.22,1.37 4.51,2.68 6.68,4.16c1.1,0.73 2.21,1.44 3.3,2.19l3.23,2.3l1.61,1.16l1.57,1.21l3.16,2.44c2.07,1.66 4.08,3.39 6.14,5.11a8.35,8.35 0 1 1 -10.68,12.83a8.69,8.69 0 0 1 -1.49,-1.61l-0.19,-0.29c-1.39,-2 -2.74,-4 -4.17,-6l-2.2,-2.93l-1.1,-1.48l-1.16,-1.43l-2.32,-2.87c-0.79,-1 -1.61,-1.86 -2.42,-2.79c-1.6,-1.9 -3.33,-3.65 -5,-5.47a139.36,139.36 0 0 0 -11,-10.13a88.55,88.55 0 0 0 -12.42,-8.71z" id="svg_115"/>
    <path class="cls-3" d="m922.63,1069.92a91.91,91.91 0 0 1 14.54,5.17a150.94,150.94 0 0 1 13.92,7.13c2.22,1.37 4.51,2.69 6.68,4.17c1.1,0.73 2.21,1.44 3.3,2.19l3.23,2.3l1.61,1.16l1.57,1.21l3.16,2.44c2.07,1.65 4.08,3.39 6.14,5.1a8.35,8.35 0 0 1 -10.68,12.84a8.74,8.74 0 0 1 -1.49,-1.62l-0.19,-0.28c-1.39,-2 -2.74,-4 -4.17,-6l-2.2,-2.94l-1.1,-1.47l-1.16,-1.43l-2.32,-2.87c-0.79,-1 -1.61,-1.86 -2.42,-2.8c-1.6,-1.89 -3.33,-3.64 -5,-5.47a143.29,143.29 0 0 0 -11,-10.13a89.33,89.33 0 0 0 -12.42,-8.7z" id="svg_116"/>
    <path class="cls-3" d="m922.63,1047.79a91,91 0 0 1 14.54,5.18a148.5,148.5 0 0 1 13.92,7.13c2.22,1.37 4.51,2.69 6.68,4.16c1.1,0.73 2.21,1.44 3.3,2.19l3.23,2.3l1.61,1.16l1.57,1.21l3.16,2.44c2.07,1.66 4.08,3.4 6.14,5.11a8.35,8.35 0 1 1 -12.17,11.22l-0.19,-0.28c-1.39,-2 -2.74,-4 -4.17,-6l-2.2,-2.94l-1.1,-1.48l-1.16,-1.43l-2.32,-2.87c-0.79,-0.94 -1.61,-1.86 -2.42,-2.79c-1.6,-1.89 -3.33,-3.64 -5,-5.47a141.3,141.3 0 0 0 -11,-10.13a89.39,89.39 0 0 0 -12.42,-8.71z" id="svg_117"/>
    <path class="cls-3" d="m922.63,1026.53a91,91 0 0 1 14.54,5.18a148.5,148.5 0 0 1 13.92,7.13c2.22,1.37 4.51,2.69 6.68,4.16c1.1,0.73 2.21,1.44 3.3,2.2l3.23,2.3l1.61,1.15l1.57,1.21l3.16,2.44c2.07,1.66 4.08,3.4 6.14,5.11a8.35,8.35 0 1 1 -12.17,11.22l-0.19,-0.28c-1.39,-2 -2.74,-4 -4.17,-6l-2.2,-2.94l-1.1,-1.48l-1.16,-1.43l-2.32,-2.87c-0.79,-0.94 -1.61,-1.86 -2.42,-2.79c-1.6,-1.89 -3.33,-3.64 -5,-5.47a141.3,141.3 0 0 0 -11,-10.13a89.39,89.39 0 0 0 -12.42,-8.71z" id="svg_118"/>
    <path class="cls-3" d="m918.62,999.12a125,125 0 0 1 15.74,5.68a167.24,167.24 0 0 1 15.21,7.48c4.95,2.78 9.87,5.75 14.59,9.06s9.33,6.85 13.86,10.59a10,10 0 0 1 -12.79,15.44a9.88,9.88 0 0 1 -2,-2.18l-0.08,-0.13c-2.84,-4.34 -5.81,-8.7 -9.12,-12.83a162.82,162.82 0 0 0 -22.28,-23.23a121.83,121.83 0 0 0 -13.13,-9.88z" id="svg_119"/>
    <path class="cls-3" d="m921.43,979.43a124.42,124.42 0 0 1 15.52,6a168.08,168.08 0 0 1 14.93,7.78c4.85,2.88 9.65,5.93 14.25,9.32s9.08,7 13.46,10.78a8.32,8.32 0 1 1 -10.9,12.58a8,8 0 0 1 -1.36,-1.5l-0.1,-0.14c-3,-4.3 -6.09,-8.59 -9.52,-12.64a164.61,164.61 0 0 0 -22.93,-22.61a123.26,123.26 0 0 0 -13.35,-9.57z" id="svg_120"/>
    <path class="cls-3" d="m921.43,959.74a124.42,124.42 0 0 1 15.52,6a168.08,168.08 0 0 1 14.93,7.78c4.85,2.88 9.65,5.93 14.25,9.32s9.08,7 13.46,10.78a8.32,8.32 0 1 1 -10.9,12.58a8,8 0 0 1 -1.36,-1.5l-0.1,-0.14c-3,-4.3 -6.09,-8.59 -9.52,-12.64a164.61,164.61 0 0 0 -22.93,-22.67a121.9,121.9 0 0 0 -13.35,-9.51z" id="svg_121"/>
    <path class="cls-3" d="m928,942.53a69.4,69.4 0 0 1 10.38,3.12a101,101 0 0 1 10.08,4.46a110.45,110.45 0 0 1 9.7,5.58c1.62,1 3.13,2.09 4.7,3.16s3,2.26 4.58,3.4a8.43,8.43 0 1 1 -12.25,11.14l-0.11,-0.2c-0.86,-1.41 -1.68,-2.87 -2.58,-4.28s-1.81,-2.84 -2.81,-4.2a101.57,101.57 0 0 0 -6.27,-8.07a99.31,99.31 0 0 0 -7.2,-7.48a66.37,66.37 0 0 0 -8.22,-6.63z" id="svg_122"/>
    <path class="cls-3" d="m928,920.89a69.36,69.36 0 0 1 10.36,3.11a105.85,105.85 0 0 1 10.08,4.46a110.45,110.45 0 0 1 9.7,5.58c1.62,1 3.13,2.09 4.7,3.17s3,2.25 4.58,3.4a8.43,8.43 0 1 1 -10.09,13.51a8.65,8.65 0 0 1 -2.16,-2.37l-0.11,-0.2c-0.86,-1.41 -1.68,-2.87 -2.58,-4.29s-1.81,-2.84 -2.81,-4.19a99.79,99.79 0 0 0 -6.27,-8.07a95.65,95.65 0 0 0 -7.2,-7.48a66.37,66.37 0 0 0 -8.2,-6.63z" id="svg_123"/>
    <path class="cls-3" d="m937.05,907.28a40.55,40.55 0 0 1 8.17,2.51a85.75,85.75 0 0 1 7.84,3.66c2.57,1.33 5.07,2.79 7.56,4.29l3.68,2.32l3.63,2.42a6.74,6.74 0 0 1 -7.47,11.22a6.93,6.93 0 0 1 -1.86,-1.84l-0.05,-0.09l-2.26,-3.39l-2.29,-3.32c-1.61,-2.18 -3.25,-4.36 -5,-6.44a77.13,77.13 0 0 0 -5.52,-6.06a38.61,38.61 0 0 0 -6.43,-5.28z" id="svg_124"/>
    <path class="cls-3" d="m941.35,890.75a15.17,15.17 0 0 1 3.81,0.67c1.26,0.35 2.49,0.79 3.71,1.26c2.43,1 4.81,2.06 7.14,3.25s4.61,2.48 6.86,3.82s4.46,2.73 6.67,4.15a6.77,6.77 0 0 1 -7.32,11.38a6.87,6.87 0 0 1 -2.07,-2.09c-1.3,-2.07 -2.63,-4.15 -4,-6.18s-2.81,-4 -4.31,-6s-3.08,-3.82 -4.77,-5.6c-0.86,-0.89 -1.73,-1.76 -2.67,-2.56a14.81,14.81 0 0 0 -3.05,-2.1z" id="svg_125"/>
    <path class="cls-3" d="m949.86,878a36.13,36.13 0 0 1 5.58,0.94c1.85,0.44 3.69,1 5.53,1.61s3.64,1.31 5.44,2.06s3.58,1.56 5.35,2.42l0.17,0.08a6.94,6.94 0 1 1 -9.06,9.68c-0.85,-1.51 -1.74,-3 -2.69,-4.49s-1.95,-2.94 -3,-4.35s-2.18,-2.82 -3.38,-4.16a33.51,33.51 0 0 0 -3.94,-3.79z" id="svg_126"/>
    <path class="cls-3" d="m973.41,992.87s33.76,-32.06 40.69,-41.53s12.83,-34.14 12.83,-34.14l-6.32,45.89l-37.07,44.34l-10.13,-14.56z" id="svg_127"/>
    <line class="cls-1" id="svg_128" x1="876.37" x2="887.02" y1="728.07" y2="745.03"/>
    <path class="cls-3" d="m779.55,610.53c6.37,0 6.38,-9.9 0,-9.9s-6.38,9.9 0,9.9z" id="svg_129"/>
    <path class="cls-3" d="m804.84,625.7c6.37,0 6.38,-9.9 0,-9.9s-6.39,9.9 0,9.9z" id="svg_130"/>
    <path class="cls-3" d="m808.21,593.67c6.37,0 6.38,-9.9 0,-9.9s-6.38,9.9 0,9.9z" id="svg_131"/>
    <path class="cls-3" d="m835.18,619c6.37,0 6.38,-9.91 0,-9.91s-6.38,9.91 0,9.91z" id="svg_132"/>
    <path class="cls-3" d="m863.84,590.3c6.37,0 6.38,-9.9 0,-9.9s-6.39,9.9 0,9.9z" id="svg_133"/>
    <path class="cls-3" d="m836.87,592c6.37,0 6.38,-9.91 0,-9.91s-6.39,9.91 0,9.91z" id="svg_134"/>
    <path class="cls-3" d="m828.44,558.27c6.37,0 6.38,-9.9 0,-9.9s-6.39,9.9 0,9.9z" id="svg_135"/>
    <path class="cls-3" d="m782.92,576.81c6.38,0 6.39,-9.9 0,-9.9s-6.38,9.9 0,9.9z" id="svg_136"/>
    <path class="cls-3" d="m762.69,624c6.38,0 6.39,-9.9 0,-9.9s-6.38,9.9 0,9.9z" id="svg_137"/>
    <path class="cls-3" d="m799.78,571.76c6.37,0 6.38,-9.91 0,-9.91s-6.38,9.91 0,9.91z" id="svg_138"/>
    <path class="cls-3" d="m657.76,793c6.37,0 6.38,-9.91 0,-9.91s-6.38,9.91 0,9.91z" id="svg_139"/>
    <path class="cls-3" d="m666.61,823.35c6.37,0 6.38,-9.9 0,-9.9s-6.38,9.9 0,9.9z" id="svg_140"/>
    <path class="cls-3" d="m688.1,789.21c6.37,0 6.38,-9.9 0,-9.9s-6.38,9.9 0,9.9z" id="svg_141"/>
    <path class="cls-3" d="m709.59,809.44c6.38,0 6.39,-9.9 0,-9.9s-6.38,9.9 0,9.9z" id="svg_142"/>
    <path class="cls-3" d="m727.29,779.1c6.38,0 6.39,-9.9 0,-9.9s-6.38,9.9 0,9.9z" id="svg_143"/>
    <path class="cls-3" d="m691.89,830.94l1.27,0a3.8,3.8 0 0 0 1.91,-0.43a4.41,4.41 0 0 0 2.61,-2.62a3.68,3.68 0 0 0 0.43,-1.91l-0.18,-1.31a5,5 0 0 0 -1.27,-2.19a5.14,5.14 0 0 0 -3.5,-1.45l-1.27,0a3.77,3.77 0 0 0 -1.9,0.43a4.39,4.39 0 0 0 -2.62,2.62a3.77,3.77 0 0 0 -0.43,1.9l0.18,1.32a5,5 0 0 0 1.27,2.19a5.19,5.19 0 0 0 3.5,1.45z" id="svg_144"/>
    <path class="cls-3" d="m732.35,810.71c6.37,0 6.38,-9.91 0,-9.91s-6.38,9.91 0,9.91z" id="svg_145"/>
    <path class="cls-3" d="m678,855c6.37,0 6.38,-9.91 0,-9.91s-6.4,9.91 0,9.91z" id="svg_146"/>
    <path class="cls-3" d="m643.85,856.22c6.37,0 6.38,-9.9 0,-9.9s-6.38,9.9 0,9.9z" id="svg_147"/>
    <path class="cls-3" d="m640.06,824.61c6.37,0 6.38,-9.9 0,-9.9s-6.38,9.9 0,9.9z" id="svg_148"/>
    <path class="cls-3" d="m1002.91,521.19c6.37,0 6.38,-9.91 0,-9.91s-6.38,9.91 0,9.91z" id="svg_149"/>
    <path class="cls-3" d="m1026.51,507.7c6.37,0 6.38,-9.9 0,-9.9s-6.38,9.9 0,9.9z" id="svg_150"/>
    <path class="cls-3" d="m1008.81,497.59c6.37,0 6.38,-9.91 0,-9.91s-6.38,9.91 0,9.91z" id="svg_151"/>
    <path class="cls-3" d="m1028.19,555.74c6.38,0 6.39,-9.9 0,-9.9s-6.38,9.9 0,9.9z" id="svg_152"/>
    <path class="cls-3" d="m1057.69,523.71c6.38,0 6.39,-9.9 0,-9.9s-6.38,9.9 0,9.9z" id="svg_153"/>
    <path class="cls-3" d="m1029.88,527.09c6.37,0 6.38,-9.91 0,-9.91s-6.38,9.91 0,9.91z" id="svg_154"/>
    <path class="cls-3" d="m1081.29,518.66c6.38,0 6.39,-9.91 0,-9.91s-6.38,9.91 0,9.91z" id="svg_155"/>
    <path class="cls-3" d="m1066.12,563.33c6.38,0 6.39,-9.9 0,-9.9s-6.38,9.9 0,9.9z" id="svg_156"/>
    <path class="cls-3" d="m1099,575.13c6.38,0 6.39,-9.9 0,-9.9s-6.38,9.9 0,9.9z" id="svg_157"/>
    <path class="cls-3" d="m1094.78,550.69c6.37,0 6.38,-9.91 0,-9.91s-6.38,9.91 0,9.91z" id="svg_158"/>
    <path class="cls-3" d="m1051,546.47c6.37,0 6.38,-9.9 0,-9.9s-6.38,9.9 0,9.9z" id="svg_159"/>
    <path class="cls-3" d="m1056,501.8c6.37,0 6.38,-9.9 0,-9.9s-6.38,9.9 0,9.9z" id="svg_160"/>
    <path class="cls-3" d="m1134.39,729.37c6.38,0 6.39,-9.9 0,-9.9s-6.38,9.9 0,9.9z" id="svg_161"/>
    <path class="cls-3" d="m1144.51,762.24c6.37,0 6.38,-9.9 0,-9.9s-6.38,9.9 0,9.9z" id="svg_162"/>
    <path class="cls-3" d="m1161.37,734.43c6.37,0 6.38,-9.9 0,-9.9s-6.39,9.9 0,9.9z" id="svg_163"/>
    <path class="cls-3" d="m1169,755.5c6.37,0 6.38,-9.9 0,-9.9s-6.38,9.9 0,9.9z" id="svg_164"/>
    <path class="cls-3" d="m1190.87,738.64c6.37,0 6.38,-9.9 0,-9.9s-6.39,9.9 0,9.9z" id="svg_165"/>
    <path class="cls-3" d="m1159.68,790.9c6.37,0 6.38,-9.9 0,-9.9s-6.38,9.9 0,9.9z" id="svg_166"/>
    <path class="cls-3" d="m1191.71,794.27c6.37,0 6.38,-9.9 0,-9.9s-6.38,9.9 0,9.9z" id="svg_167"/>
    <path class="cls-3" d="m1189.18,769c6.37,0 6.38,-9.91 0,-9.91s-6.38,9.91 0,9.91z" id="svg_168"/>
    <path class="cls-3" d="m1220.37,753c6.37,0 6.38,-9.9 0,-9.9s-6.39,9.9 0,9.9z" id="svg_169"/>
    <path class="cls-3" d="m1211.94,777.41c6.37,0 6.38,-9.9 0,-9.9s-6.39,9.9 0,9.9z" id="svg_170"/>
    <path class="cls-3" d="m1126.23,783.24c6.37,0 6.38,-9.9 0,-9.9s-6.38,9.9 0,9.9z" id="svg_171"/>
    <path class="cls-3" d="m1148.72,816.66c6.38,0 6.39,-9.91 0,-9.91s-6.38,9.91 0,9.91z" id="svg_172"/>
    <path class="cls-3" d="m1175.69,723.47c6.38,0 6.39,-9.9 0,-9.9s-6.38,9.9 0,9.9z" id="svg_173"/>
    <path class="cls-3" d="m1174,800.17c6.37,0 6.38,-9.9 0,-9.9s-6.38,9.9 0,9.9z" id="svg_174"/>
    <path class="cls-3" d="m823.38,635.81c6.37,0 6.38,-9.9 0,-9.9s-6.38,9.9 0,9.9z" id="svg_175"/>
    <path class="cls-3" d="m781.24,637.5c6.37,0 6.38,-9.9 0,-9.9s-6.39,9.9 0,9.9z" id="svg_176"/>
    <path class="cls-3" d="m850.35,565.86c6.37,0 6.38,-9.91 0,-9.91s-6.38,9.91 0,9.91z" id="svg_177"/>
    <path class="cls-3" d="m1046.74,571.76c6.37,0 6.38,-9.91 0,-9.91s-6.39,9.91 0,9.91z" id="svg_178"/>
    <path class="cls-3" d="m1104.89,530.46c6.38,0 6.39,-9.91 0,-9.91s-6.38,9.91 0,9.91z" id="svg_179"/>
    <path class="cls-3" d="m1081.29,580.19c6.38,0 6.39,-9.91 0,-9.91s-6.38,9.91 0,9.91z" id="svg_180"/>
    <path class="cls-3" d="m981.26,530.6c6.37,0 6.38,-9.91 0,-9.91s-6.38,9.91 0,9.91z" id="svg_181"/>
    <path class="cls-3" d="m1077.5,538.89c6.37,0 6.38,-9.91 0,-9.91s-6.38,9.91 0,9.91z" id="svg_182"/>
    <path class="cls-3" d="m860,618.54c6.38,0 6.39,-9.91 0,-9.91s-6.38,9.91 0,9.91z" id="svg_183"/>
    <path class="cls-3" d="m707.07,775.31c6.37,0 6.38,-9.91 0,-9.91s-6.39,9.91 0,9.91z" id="svg_184"/>
    <path class="cls-3" d="m684.31,810.71c6.37,0 6.38,-9.91 0,-9.91s-6.38,9.91 0,9.91z" id="svg_185"/>
    <path class="cls-3" d="m719.71,841.05c6.37,0 6.38,-9.9 0,-9.9s-6.38,9.9 0,9.9z" id="svg_186"/>
    <path class="cls-3" d="m656.49,844.84c6.38,0 6.39,-9.9 0,-9.9s-6.38,9.9 0,9.9z" id="svg_187"/>
    <path class="cls-3" d="m1212.78,734.85c6.37,0 6.38,-9.9 0,-9.9s-6.38,9.9 0,9.9z" id="svg_188"/>
    <path class="cls-3" d="m1232.43,776.13c6.37,0 6.38,-9.9 0,-9.9s-6.38,9.9 0,9.9z" id="svg_189"/>
    <path class="cls-3" d="m979.59,1320l0,-15.85l1.12,-12.25l13.21,8.71l24.58,9.84s32.13,5 38.26,9.55s-1.88,12.08 -1.88,12.08l-53.94,0s-19.94,-5.58 -21.35,-12.08z" id="svg_190"/>
    <path class="cls-3" d="m1098.33,1293.77s18.36,-17.28 21.31,-27.39l35,19s-0.42,8.85 0,10.54s-9.27,4.77 -9.27,4.77l-47.04,-6.92z" id="svg_191"/>
    <path class="cls-3" d="m1069.07,1169.87s11.1,-12.69 21.78,-12.69s18.26,23.23 16,41.21s0.28,63.21 9.83,66.3l3,-55.07l0,-61.81l-35,-8.81l-15.6,11.34l-0.01,19.53z" id="svg_192"/>
    <path class="cls-1" d="m726.87,1291.94c2.11,-0.7 54.37,-18 91,-60.33" id="svg_193"/>
    <path class="cls-1" d="m750.89,1291.94s48.89,-6.6 88.5,-33.43c18.5,-12.53 12.38,-26.9 12.38,-26.9" id="svg_194"/>
    <path class="cls-1" d="m528.38,1277.05s25,-6.74 43.55,-5.62s42.14,18.83 42.14,18.83" id="svg_195"/>
    <line class="cls-1" id="svg_196" x1="528.38" x2="610.91" y1="1302.9" y2="1291.57"/>
    <path class="cls-1" d="m1005,1229.29s58.7,-9 88.7,-39.91" id="svg_197"/>
    <path class="cls-1" d="m1110,1185s1.08,45.29 -51.86,68.51" id="svg_198"/>
    <path class="cls-1" d="m1114.17,1237.93s-6.22,26.53 -37.56,41.08" id="svg_199"/>
    <line class="cls-4" id="svg_200" x1="673.35" x2="673.35" y1="1307.95" y2="1109.18"/>
    <line class="cls-4" id="svg_201" x1="1209.08" x2="1209.08" y1="1307.68" y2="1111.03"/>
    <path class="cls-1" d="m825.49,1598.88s12.25,-146.27 223.88,-225.83" id="svg_202"/>
    <path class="cls-1" d="m809,1595.82s26.72,-120.39 142.67,-173.8" id="svg_203"/>
    <path class="cls-1" d="m920.94,1607.73s-24,-126.85 132.86,-206.14" id="svg_204"/>
    <path class="cls-1" d="m905.31,1607.73s-6.47,-82.32 60,-149.18" id="svg_205"/>
    <path class="cls-1" d="m737.66,1577.52s41.05,-104.22 163,-168.19" id="svg_206"/>
    <path class="cls-1" d="m720.94,1572s44.29,-80.09 123.79,-126.92" id="svg_207"/>
    <path class="cls-1" d="m997.68,1606.13s-46,-112.71 69.1,-179.22" id="svg_208"/>
    <path class="cls-1" d="m983.88,1607.18s-21.43,-75.16 19,-124.75" id="svg_209"/>
    <path class="cls-1" d="m1076.61,1594.6s-34,-31.19 -24.53,-83.23c10.67,-58.44 84.3,-93.11 84.3,-93.11" id="svg_210"/>
    <path class="cls-1" d="m1062.67,1597.34s-54.05,-56.75 -5.91,-118.84" id="svg_211"/>
    <path class="cls-1" d="m1156.36,1572.76s-93.69,-82.38 50.46,-153.14" id="svg_212"/>
    <path class="cls-1" d="m1142.77,1577.25s-62.46,-41.16 -5.19,-112" id="svg_213"/>
    <path class="cls-1" d="m1203.7,1554.52s-39,-24.11 -27.58,-61.1s87.89,-66.51 87.89,-66.51" id="svg_214"/>
    <path class="cls-1" d="m1209.08,1552.18s-23.29,-16.5 -25.38,-43.26" id="svg_215"/>
    <path class="cls-1" d="m1255.21,1529.7s-30.63,-19.18 -16,-48.82s75.25,-44.4 75.25,-44.4" id="svg_216"/>
    <path class="cls-1" d="m1262.58,1525.69s-26.2,-19.1 -15.52,-44.81" id="svg_217"/>
    <path class="cls-1" d="m653.54,1544.43s68.7,-68.37 166.33,-123.77" id="svg_218"/>
    <line class="cls-1" id="svg_219" x1="643.88" x2="684.73" y1="1539.75" y2="1507.43"/>
    <path class="cls-1" d="m582.32,1505.17s150.43,-81.59 222.72,-113" id="svg_220"/>
    <path class="cls-1" d="m527.12,1466.16s89.34,-39.06 188.59,-72.07" id="svg_221"/>
    <circle class="cls-1" cx="939.78" cy="939.78" id="svg_222" r="931.53"/>
    <path class="cls-1" d="m138.05,939.78c0,-442.78 359,-801.73 801.73,-801.73s801.74,359 801.74,801.73" id="svg_223"/>
    <path class="cls-3" d="m127.83,1230.48c-6.39,-21 12.53,-50.9 8.64,-63.64l-5.16,-16.95l-25.65,7.82l-8,-26.3l112.92,-34.41l14.95,49c12,39.36 -2.85,66.46 -25.27,73.29s-39.53,-6.47 -44.23,-12.62c-4.66,5 -3.37,23.07 4.05,27.15c-1.19,16.99 -25.86,17.63 -32.25,-3.34zm64.46,-37.28c11.62,-3.54 13.63,-17.2 6.94,-39.14l-6.93,-22.75l-34.69,10.57l6.93,22.75c6.69,21.94 16.13,32.11 27.75,28.57z" id="svg_224"/>
    <path class="cls-3" d="m196.57,1376.91l15,-20.06l-29.57,-56.46l-25,0.93l-14.17,-27l130.81,-4l0.15,-0.08l15.21,29.08l-0.15,0.08l-78.19,104.4l-14.09,-26.89zm59.06,-78.76l-43.27,1.35l17.38,33.17l25.89,-34.52z" id="svg_225"/>
    <path class="cls-3" d="m299.23,1518l-10.83,-13.8l10.41,-103.38l-56.65,44.47l-17.24,-21.42l93,-73l11.88,15.13l-10.16,101.25l55.46,-43.54l16.87,21.5l-92.74,72.79z" id="svg_226"/>
    <path class="cls-3" d="m427,1589.08l-7.46,26.43c-15,-4.23 -29.79,-12.54 -42.7,-24.17c-34.59,-31.15 -44.39,-74.71 -22.27,-99.27s66.58,-19.49 101.17,11.67c12.91,11.63 22.71,25.45 28.48,40l-25.5,10.17c-4.13,-10.54 -11.73,-21 -21.38,-29.7c-19.55,-17.61 -49.81,-27.61 -62.34,-13.7s0.57,43 20.12,60.57c9.66,8.65 20.98,14.99 31.88,18z" id="svg_227"/>
    <path class="cls-3" d="m532.41,1701.07l-23.28,-14.64l24.24,-38.55l-54.26,-34.12l-24.25,38.55l-23.27,-14.63l62.94,-100.11l23.27,14.64l-24.15,38.41l54.27,34.12l24.15,-38.41l23.28,14.67l-62.94,100.07z" id="svg_228"/>
    <path class="cls-3" d="m708.66,1711.35c-12.08,30.22 -51.6,42.76 -88.25,28.1s-56.79,-51 -44.7,-81.26s51.67,-42.92 88.47,-28.2c36.64,14.65 56.57,51.13 44.48,81.36zm-25.37,-10.15c6.39,-16 -7.08,-36.8 -29.32,-45.69s-46.35,-3.09 -52.74,12.88c-6.32,15.82 7.09,36.8 29.32,45.69s46.45,2.92 52.74,-12.88z" id="svg_229"/>
    <path class="cls-3" d="m840.27,1796.05l-84.86,-14.05l19.31,-116.32l27.13,4.51l-14.85,89.31l57.74,9.59l-4.47,26.96z" id="svg_230"/>
    <path class="cls-3" d="m1006.52,1743c-0.53,32.55 -33,58.34 -72.47,57.69c-39.63,-0.64 -71.24,-27.47 -70.71,-60s33,-58.51 72.63,-57.86c39.46,0.57 71.08,27.57 70.55,60.17zm-27.32,-0.45c0.27,-17.2 -19.73,-31.86 -43.68,-32.25s-44.42,13.61 -44.7,30.82c-0.27,17 19.73,31.86 43.68,32.25s44.42,-13.83 44.7,-30.87l0,0.05z" id="svg_231"/>
    <path class="cls-3" d="m1147.6,1741.49c3.65,20.43 -17.81,40.37 -50,46.12c-42.35,7.57 -68.58,-4 -69.69,-4.51l11.3,-25s20.18,8.39 53.55,2.43c17.6,-3.15 28.62,-9.57 27.73,-14.55c-0.86,-4.82 -24.79,-4.49 -34.69,-4.26c-24.26,0.39 -54.51,0.83 -59.17,-25.24c-3.68,-20.59 17.81,-40.36 50,-46.12s49.76,0.36 51.79,1.2l-9.82,25.57l0.19,0.14c-0.19,-0.14 -12.94,-4.37 -37.35,0c-17.27,3.09 -28.53,10.07 -27.76,14.38c0.8,4.49 21.91,2.77 31.64,2.58c24.1,-0.36 57.26,-0.8 62.28,27.26z" id="svg_232"/>
    <path class="cls-3" d="m1300,1723.08l-79.84,32l-43.89,-109.43l25.52,-10.24l33.72,84.07l54.32,-21.79l10.17,25.39z" id="svg_233"/>
    <path class="cls-3" d="m1263.16,1609l24.52,-12.44l53.49,105.44l-24.52,12.44l-53.49,-105.44z" id="svg_234"/>
    <path class="cls-3" d="m1476.46,1616.53l-22.83,15.3l-36.91,-55.06l-7,66.82l-62.83,-19.21l36.53,54.51l-22.84,15.3l-65.65,-97.93l16.82,-11.27l74.2,22.55l8.18,-77.78l16.68,-11.17l65.65,97.94z" id="svg_235"/>
    <path class="cls-3" d="m1556.07,1458c23,23.09 18.78,64.34 -9.2,92.17s-69.39,31.89 -92.34,8.81s-18.9,-64.46 9.2,-92.41s69.39,-31.66 92.34,-8.57zm-19.37,19.27c-12.13,-12.2 -36.59,-8.09 -53.58,8.79s-21.23,41.33 -9.1,53.53s36.6,8.1 53.58,-8.79s21.11,-41.46 9.1,-53.54l0,0.01z" id="svg_236"/>
    <path class="cls-3" d="m1681,1382l-10,14.4l-101.9,20.3l59.11,41.16l-15.44,22.75l-97,-67.57l11,-15.78l99.79,-19.92l-57.95,-40.34l15.61,-22.42l96.78,67.42z" id="svg_237"/>
    <path class="cls-3" d="m1638.72,1305.48l21.55,-44.11l24.55,12l-21.54,44.1l16.07,7.85l31.68,-64.87l24.55,12l-43.75,89.55l-105.94,-51.75l43.89,-89.88l24.71,12.07l-31.83,65.17l16.06,7.87z" id="svg_238"/>
    <path class="cls-3" d="m1747.88,1121.1c19.84,6.06 27.82,34.24 18.28,65.54c-12.55,41.14 -34.82,59.22 -35.76,60l-17.09,-21.44s16.65,-14.14 26.55,-46.57c5.21,-17.1 4.51,-29.84 -0.33,-31.32c-4.68,-1.42 -15.28,20 -19.58,29c-10.7,21.78 -24.09,48.91 -49.42,41.18c-20,-6.1 -27.83,-34.24 -18.28,-65.54s23,-44.13 24.65,-45.56l18.3,20.4l0.21,-0.12c-0.21,0.12 -9.79,9.54 -17,33.26c-5.12,16.78 -4,30 0.16,31.26c4.35,1.33 12.44,-18.25 16.7,-27c10.63,-21.68 25.34,-51.4 52.61,-43.09z" id="svg_239"/>
    <line class="cls-1" id="svg_240" x1="528.38" x2="708.75" y1="1405.87" y2="1368.9"/>
    <line class="cls-1" id="svg_241" x1="1057.69" x2="1051.57" y1="694.31" y2="724.14"/>
    <path class="cls-1" d="m1096.53,1142s23.16,0 39.34,2.53c0,0 -18.18,2.8 -19.67,23.24" id="svg_242"/>
    <path class="cls-1" d="m722.24,1300.65l67.43,-1.45s15.19,-22.46 66.16,-38.72" id="svg_243"/>
    <path class="cls-3" d="m674.46,869.21a179.45,179.45 0 0 0 26.37,-6.4a173.31,173.31 0 0 0 24.86,-10a127.68,127.68 0 0 0 22.18,-13.94a100.58,100.58 0 0 0 9.47,-8.56a87.61,87.61 0 0 0 7.95,-9.6l0.07,-0.1a8.28,8.28 0 0 1 13.4,9.74a8.09,8.09 0 0 1 -0.8,0.94a104.56,104.56 0 0 1 -11.07,9.85a111.3,111.3 0 0 1 -12.12,8a137.58,137.58 0 0 1 -26,11.3a179.21,179.21 0 0 1 -27,6.4a182.5,182.5 0 0 1 -27.31,2.37z" id="svg_244"/>
    <path class="cls-3" d="m656.49,887.15a202.85,202.85 0 0 0 29.36,-3.88a194.51,194.51 0 0 0 28.2,-7.9a141.51,141.51 0 0 0 25.85,-12.37a108.88,108.88 0 0 0 11.38,-8.14a95.27,95.27 0 0 0 9.86,-9.48l0.09,-0.09a8.27,8.27 0 1 1 12.23,11.14a6.79,6.79 0 0 1 -0.82,0.79a111.18,111.18 0 0 1 -13,9.43a123.13,123.13 0 0 1 -14,7.31a152.79,152.79 0 0 1 -29.31,9.38a212.73,212.73 0 0 1 -59.85,3.84l0.01,-0.03z" id="svg_245"/>
    <path class="cls-3" d="m663.93,902.26a149.35,149.35 0 0 0 25.47,-3a151.13,151.13 0 0 0 24.33,-7a121.47,121.47 0 0 0 11.43,-5c1.86,-0.89 3.65,-1.91 5.46,-2.88s3.55,-2.05 5.24,-3.19a94.73,94.73 0 0 0 18.42,-15.32l0,0a8.28,8.28 0 1 1 12.09,11.32a10.23,10.23 0 0 1 -1,0.89a109,109 0 0 1 -23.75,14.06c-2.06,0.95 -4.19,1.73 -6.29,2.56s-4.24,1.53 -6.39,2.16a131.38,131.38 0 0 1 -12.94,3.39a157.23,157.23 0 0 1 -26.15,3.13a151.62,151.62 0 0 1 -25.92,-1.12z" id="svg_246"/>
    <path class="cls-3" d="m730.09,835.63a89.65,89.65 0 0 0 10.33,-6.07a93.08,93.08 0 0 0 9.25,-7.19a66,66 0 0 0 7.76,-8.16a48.22,48.22 0 0 0 5.54,-8.9a8.38,8.38 0 1 1 13.4,9.67l-0.09,0.09a62,62 0 0 1 -10.75,8.5a76.35,76.35 0 0 1 -11.53,5.84a96.44,96.44 0 0 1 -11.88,3.91a89.54,89.54 0 0 1 -12.03,2.31z" id="svg_247"/>
    <path class="cls-3" d="m797.27,657.86a180,180 0 0 0 26.37,-6.39a175,175 0 0 0 24.86,-10a127.59,127.59 0 0 0 22.17,-13.94a96.86,96.86 0 0 0 9.47,-8.56a89.74,89.74 0 0 0 8,-9.59l0.07,-0.1a8.28,8.28 0 1 1 13.4,9.73a10.56,10.56 0 0 1 -0.8,0.95a104.68,104.68 0 0 1 -11.08,9.84a111.3,111.3 0 0 1 -12.12,8a137.3,137.3 0 0 1 -26,11.3a178.92,178.92 0 0 1 -27,6.4a181,181 0 0 1 -27.34,2.36z" id="svg_248"/>
    <path class="cls-3" d="m779.3,675.8a200.11,200.11 0 0 0 29.36,-3.88a196.12,196.12 0 0 0 28.2,-7.89a142.84,142.84 0 0 0 25.85,-12.41a108.88,108.88 0 0 0 11.38,-8.14a97.33,97.33 0 0 0 9.91,-9.48l0.08,-0.09a8.28,8.28 0 1 1 12.24,11.15a10,10 0 0 1 -0.82,0.78a111.18,111.18 0 0 1 -13,9.43a123.13,123.13 0 0 1 -14,7.31a152.19,152.19 0 0 1 -29.36,9.42a212.63,212.63 0 0 1 -59.84,3.84l0,-0.04z" id="svg_249"/>
    <path class="cls-3" d="m790.56,689.91a156.17,156.17 0 0 0 24.49,-3.08a151.71,151.71 0 0 0 23.41,-6.65a111,111 0 0 0 21.24,-10.56a83.49,83.49 0 0 0 9.23,-6.88a79.55,79.55 0 0 0 8,-8l0.08,-0.09a8.28,8.28 0 0 1 12.43,10.95a8.77,8.77 0 0 1 -1,1a93.51,93.51 0 0 1 -11.08,7.89a98.92,98.92 0 0 1 -11.85,6.08a121.41,121.41 0 0 1 -24.78,7.55a157.16,157.16 0 0 1 -25.17,2.81a159.76,159.76 0 0 1 -25,-1.02z" id="svg_250"/>
    <path class="cls-3" d="m852.89,624.28a89.65,89.65 0 0 0 10.33,-6.07a90.56,90.56 0 0 0 9.26,-7.18a66.61,66.61 0 0 0 7.75,-8.16a47.24,47.24 0 0 0 5.54,-8.91a8.39,8.39 0 1 1 13.41,9.68l-0.1,0.08a62.33,62.33 0 0 1 -10.74,8.5a77.84,77.84 0 0 1 -11.55,5.85a99.94,99.94 0 0 1 -11.88,3.93a91.56,91.56 0 0 1 -12.02,2.28z" id="svg_251"/>
    <path class="cls-3" d="m796.83,699.45a73,73 0 0 0 12.34,0.57a108.22,108.22 0 0 0 12.13,-1c2,-0.33 4,-0.6 6,-1l2.94,-0.6l2.91,-0.72c1.94,-0.44 3.84,-1.07 5.74,-1.6s3.76,-1.25 5.62,-1.86l0.26,-0.08a7.53,7.53 0 1 1 2.52,14.67c-2.21,0 -4.39,0.15 -6.58,0.14s-4.36,0 -6.54,-0.17l-3.25,-0.19l-3.23,-0.31c-2.15,-0.17 -4.29,-0.53 -6.41,-0.81a115.51,115.51 0 0 1 -12.52,-2.69a75.22,75.22 0 0 1 -11.93,-4.35z" id="svg_252"/>
    <path class="cls-3" d="m1033.8,602.63a180.07,180.07 0 0 0 26.37,-6.4a174.4,174.4 0 0 0 24.85,-10a126.12,126.12 0 0 0 22.18,-13.94a95.6,95.6 0 0 0 9.47,-8.56a88.76,88.76 0 0 0 8,-9.59l0.07,-0.1a8.28,8.28 0 0 1 13.4,9.74a10.42,10.42 0 0 1 -0.8,0.94a103.68,103.68 0 0 1 -11.08,9.85a109.76,109.76 0 0 1 -12.12,8a137.63,137.63 0 0 1 -26,11.31a189.45,189.45 0 0 1 -54.33,8.78l-0.01,-0.03z" id="svg_253"/>
    <path class="cls-3" d="m1015.83,620.57a222.07,222.07 0 0 0 29.78,-5.07a216,216 0 0 0 28.58,-8.82c4.62,-1.8 9.13,-3.8 13.53,-5.95a145.94,145.94 0 0 0 12.74,-7.12a120.87,120.87 0 0 0 11.62,-8.38a101.86,101.86 0 0 0 10.09,-9.69l0.06,-0.07a8.27,8.27 0 1 1 12.24,11.13a8.4,8.4 0 0 1 -0.8,0.78a118,118 0 0 1 -13.22,9.62a134.3,134.3 0 0 1 -14.14,7.52a157,157 0 0 1 -14.68,5.75q-7.44,2.46 -15,4.29a234.42,234.42 0 0 1 -60.82,6l0.02,0.01z" id="svg_254"/>
    <path class="cls-3" d="m1054.63,627.33a121.61,121.61 0 0 0 16.94,-3.7a126,126 0 0 0 16,-5.83a93.19,93.19 0 0 0 14.41,-8.08a66.28,66.28 0 0 0 11.67,-10.41l0.11,-0.12a8.32,8.32 0 0 1 12.37,11.13a8.82,8.82 0 0 1 -1.46,1.28a81.16,81.16 0 0 1 -17,9.09a102.81,102.81 0 0 1 -17.71,5a133.5,133.5 0 0 1 -17.79,2a125.86,125.86 0 0 1 -17.54,-0.36z" id="svg_255"/>
    <path class="cls-3" d="m1089.42,569a86.85,86.85 0 0 0 10.33,-6.07a90.56,90.56 0 0 0 9.26,-7.18a65.9,65.9 0 0 0 7.75,-8.16a47.17,47.17 0 0 0 5.54,-8.9a8.39,8.39 0 1 1 13.41,9.67l-0.1,0.09a63.32,63.32 0 0 1 -10.74,8.5a76.44,76.44 0 0 1 -11.56,5.84a97.45,97.45 0 0 1 -11.87,3.91a91.56,91.56 0 0 1 -12.02,2.3z" id="svg_256"/>
    <path class="cls-3" d="m1160,831a180.7,180.7 0 0 0 26.37,-6.39a174.52,174.52 0 0 0 24.86,-10a127.68,127.68 0 0 0 22.18,-13.94a99.35,99.35 0 0 0 9.47,-8.56a87.61,87.61 0 0 0 8,-9.6l0.08,-0.1a8.28,8.28 0 1 1 13.39,9.74a7.22,7.22 0 0 1 -0.8,0.94a104.56,104.56 0 0 1 -11.07,9.85a111.3,111.3 0 0 1 -12.12,8a137.58,137.58 0 0 1 -26,11.3a179.21,179.21 0 0 1 -27,6.4a182.39,182.39 0 0 1 -27.36,2.36z" id="svg_257"/>
    <path class="cls-3" d="m1144.51,846.81a202.53,202.53 0 0 0 29.35,-3.88a194.16,194.16 0 0 0 28.2,-7.9a140.9,140.9 0 0 0 25.85,-12.41a110,110 0 0 0 11.39,-8.13a98.43,98.43 0 0 0 9.86,-9.48l0.08,-0.09a8.28,8.28 0 1 1 12.24,11.14a10.13,10.13 0 0 1 -0.82,0.79a112.88,112.88 0 0 1 -13,9.43a121.45,121.45 0 0 1 -14,7.3a151.72,151.72 0 0 1 -29.32,9.38a201.36,201.36 0 0 1 -29.94,4.04a204.18,204.18 0 0 1 -29.89,-0.19z" id="svg_258"/>
    <path class="cls-3" d="m1169,857a172.46,172.46 0 0 0 21.32,-3.43a169,169 0 0 0 20.48,-5.91a120.08,120.08 0 0 0 18.93,-8.65a91.32,91.32 0 0 0 8.43,-5.52a73.83,73.83 0 0 0 7.4,-6.37a8.29,8.29 0 0 1 11.56,11.88a8.41,8.41 0 0 1 -1.19,1l0,0a91.28,91.28 0 0 1 -10.37,5.94a107.83,107.83 0 0 1 -10.77,4.41a131.48,131.48 0 0 1 -22,5.35a181.92,181.92 0 0 1 -43.79,1.3z" id="svg_259"/>
    <path class="cls-3" d="m1218.1,795.29a104.46,104.46 0 0 0 9.22,-6.35c2.93,-2.25 5.73,-4.63 8.37,-7.1a81.53,81.53 0 0 0 7.29,-7.77a59.88,59.88 0 0 0 5.7,-8.3a8.41,8.41 0 1 1 12.58,10.73l-0.12,0.09a74.23,74.23 0 0 1 -10.31,7a92.34,92.34 0 0 1 -10.72,5.17q-5.43,2.21 -10.94,3.82a108.56,108.56 0 0 1 -11.07,2.71z" id="svg_260"/>
    <path class="cls-3" d="m1005.7,549.68c6.38,0 6.39,-9.9 0,-9.9s-6.38,9.9 0,9.9z" id="svg_261"/>
    <path class="cls-3" d="m988,560.64c6.38,0 6.39,-9.9 0,-9.9s-6.38,9.9 0,9.9z" id="svg_262"/>
    <path class="cls-3" d="m1025.09,582.55c6.37,0 6.38,-9.9 0,-9.9s-6.38,9.9 0,9.9z" id="svg_263"/>
    <path class="cls-3" d="m1004,585.93c6.37,0 6.38,-9.91 0,-9.91s-6.39,9.91 0,9.91z" id="svg_264"/>
    <path class="cls-3" d="m1025.09,605.31c6.37,0 6.38,-9.9 0,-9.9s-6.38,9.9 0,9.9z" id="svg_265"/>
    <path class="cls-3" d="m1120.33,751.13c6.37,0 6.38,-9.91 0,-9.91s-6.38,9.91 0,9.91z" id="svg_266"/>
    <path class="cls-3" d="m1116.12,811c6.37,0 6.38,-9.91 0,-9.91s-6.39,9.91 0,9.91z" id="svg_267"/>
    <path class="cls-3" d="m1197,812.65c6.37,0 6.38,-9.9 0,-9.9s-6.38,9.9 0,9.9z" id="svg_268"/>
    <path class="cls-3" d="m1137.19,834.57c6.37,0 6.38,-9.91 0,-9.91s-6.38,9.91 0,9.91z" id="svg_269"/>
    <path class="cls-3" d="m765.49,655c6.37,0 6.38,-9.9 0,-9.9s-6.38,9.9 0,9.9z" id="svg_270"/>
    <path class="cls-3" d="m784,665.15c6.37,0 6.39,-9.9 0,-9.9s-6.38,9.9 0,9.9z" id="svg_271"/>
    <path class="cls-3" d="m804.26,646.61c6.37,0 6.38,-9.9 0,-9.9s-6.38,9.9 0,9.9z" id="svg_272"/>
    <path class="cls-3" d="m657.6,872.5c6.38,0 6.39,-9.91 0,-9.91s-6.38,9.91 0,9.91z" id="svg_273"/>
    <path class="cls-3" d="m701.43,857.33c6.37,0 6.39,-9.91 0,-9.91s-6.38,9.91 0,9.91z" id="svg_274"/>
    <path class="cls-5" d="m1078.05,632s25.28,-4.64 38.49,-18.83c0,0 3.37,15.74 -1.27,19.53s-35.4,2.08 -37.22,-0.7z" id="svg_275"/>
    <path class="cls-5" d="m1216.21,859.75s20.44,-7.1 32,-18c0,0 7.73,21 -6.54,23a40.9,40.9 0 0 1 -25.46,-5z" id="svg_276"/>
   </g>
  </g>
 </g>
</svg>